<svg xmlns="http://www.w3.org/2000/svg" xmlns:xlink="http://www.w3.org/1999/xlink" fill="none" version="1.1" width="40" height="40" viewBox="0 0 60 60"><defs><clipPath id="master_svg0_1_0"><rect x="0" y="0" width="60" height="60" rx="0"/></clipPath></defs><g clip-path="url(#master_svg0_1_0)"><g><g><rect x="0" y="0" width="60" height="60" rx="0" fill="#FFFFFF" fill-opacity="0.009999999776482582"/></g><g><g><path d="M4,12.5Q4,10.532486,5.391243,9.141243Q6.782485,7.75,8.75,7.75L51.25,7.75Q53.2175,7.75,54.6088,9.141242Q56,10.532486,56,12.5L56,47.5Q56,49.4675,54.6088,50.8588Q53.2175,52.25,51.25,52.25L8.75,52.25Q6.782485,52.25,5.391243,50.8588Q4,49.4675,4,47.5L4,12.5ZM8.5,12.5L8.5,47.5Q8.5,47.75,8.75,47.75L51.25,47.75Q51.5,47.75,51.5,47.5L51.5,12.5Q51.5,12.25,51.25,12.25L8.75,12.25Q8.5,12.25,8.5,12.5Z" fill="#FFFFFF" fill-opacity="1"/></g><g><ellipse cx="18.125" cy="20.625" rx="1.875" ry="1.875" fill="#FFFFFF" fill-opacity="1"/><ellipse cx="18.125" cy="20.625" rx="1.875" ry="1.875" fill-opacity="0" stroke-opacity="1" stroke="#FFFFFF" fill="none" stroke-width="4.5" stroke-linecap="ROUND" stroke-linejoin="round"/></g><g><path d="M4.65901,40.909L17.159,28.40901Q17.2317,28.33636,17.3106,28.27064Q17.3896,28.20492,17.4742,28.14666Q17.558799999999998,28.08841,17.648400000000002,28.03811Q17.738,27.98781,17.8318,27.94588Q17.9256,27.90396,18.0228,27.87075Q18.119999999999997,27.83755,18.219900000000003,27.81334Q18.319699999999997,27.78914,18.4214,27.77413Q18.523,27.75912,18.6256,27.75344Q18.7282,27.74776,18.8308,27.75145Q18.933500000000002,27.75514,19.0354,27.76817Q19.1373,27.78121,19.2376,27.80347Q19.337899999999998,27.82574,19.4358,27.85705Q19.5336,27.88836,19.6282,27.92846Q19.7228,27.96856,19.813299999999998,28.01711Q19.9039,28.06566,19.9896,28.12226Q20.0753,28.17887,20.1556,28.24305L26.4056,33.24305L25,35L23.2917,33.53572L30.7917,24.78572Q30.861,24.70478,30.9378,24.63076Q31.0145,24.55674,31.0979,24.49031Q31.1812,24.42388,31.2705,24.36563Q31.3598,24.30737,31.4542,24.25782Q31.5486,24.20827,31.6472,24.16787Q31.7459,24.12746,31.8479,24.09657Q31.9499,24.06567,32.0544,24.04456Q32.1589,24.02345,32.2649,24.01231Q32.370999999999995,24.00118,32.477599999999995,24.00011Q32.584199999999996,23.99905,32.6904,24.00807Q32.7966,24.01709,32.9015,24.03611Q33.0064,24.05514,33.109,24.08399Q33.211600000000004,24.11285,33.311099999999996,24.15127Q33.4105,24.189700000000002,33.5059,24.23736Q33.6012,24.28502,33.6917,24.34148Q33.7821,24.39794,33.8668,24.462699999999998L55.1168,40.7127Q55.3228,40.8702,55.4875,41.070499999999996Q55.6523,41.2707,55.7671,41.5032Q55.882,41.7357,55.941,41.9882Q56,42.240700000000004,56,42.5L56,47.5Q56,49.4675,54.6088,50.8588Q53.2175,52.25,51.25,52.25L8.75,52.25Q6.7824860000000005,52.25,5.391243,50.8588Q4,49.4675,4,47.5L4,42.5Q4,42.278400000000005,4.043229999999999,42.061Q4.08647,41.8437,4.17127,41.638999999999996Q4.25608,41.434200000000004,4.3791899999999995,41.25Q4.50231,41.0657,4.65901,40.909ZM7.84099,44.091L6.25,42.5L8.5,42.5L8.5,47.5Q8.5,47.75,8.75,47.75L51.25,47.75Q51.5,47.75,51.5,47.5L51.5,42.5L53.75,42.5L52.3832,44.2873L31.1332,28.03731L32.5,26.25L34.2083,27.71428L26.7083,36.4643Q26.6379,36.5464,26.56,36.6214Q26.4821,36.6964,26.3973,36.7635Q26.3126,36.8307,26.2217,36.8894Q26.1309,36.9481,26.0349,36.9979Q25.9389,37.0476,25.8385,37.0879Q25.7382,37.1282,25.6344,37.158699999999996Q25.5306,37.1892,25.4244,37.2096Q25.3182,37.230000000000004,25.2105,37.2401Q25.1029,37.2502,24.9947,37.25Q24.8866,37.249700000000004,24.779,37.2391Q24.6713,37.2285,24.5652,37.2076Q24.4591,37.1867,24.3555,37.155699999999996Q24.2519,37.124700000000004,24.1517,37.084Q24.0516,37.0432,23.9558,36.993Q23.86,36.9428,23.7694,36.8837Q23.6789,36.8245,23.5944,36.757L17.3444,31.75695L18.75,30L20.341,31.590989999999998L7.84099,44.091Z" fill="#FFFFFF" fill-opacity="1"/></g></g></g></g></svg>
