<svg width="16.000000" height="16.000000" viewBox="0 0 16 16" fill="none" xmlns="http://www.w3.org/2000/svg" xmlns:xlink="http://www.w3.org/1999/xlink">
	<desc>
			Created with Pixso.
	</desc>
	<g clip-path="url(#clip2_22)">
		<path d="M2.928 1.104C3.22667 1.104 3.48 1.20534 3.688 1.408C3.896 1.61067 4 1.86134 4 2.16L4 2.976C4 3.27467 3.896 3.528 3.688 3.73601C3.48 3.944 3.22667 4.048 2.928 4.048L2.08 4.048C1.792 4.048 1.544 3.944 1.336 3.73601C1.128 3.528 1.024 3.27467 1.024 2.976L1.024 2.16C1.024 1.86134 1.128 1.61067 1.336 1.408C1.544 1.20534 1.792 1.104 2.08 1.104L2.928 1.104ZM13.904 1.104C14.192 1.104 14.44 1.20534 14.648 1.408C14.856 1.61067 14.96 1.86134 14.96 2.16L14.96 2.976C14.96 3.27467 14.856 3.528 14.648 3.73601C14.44 3.944 14.192 4.048 13.904 4.048L7.072 4.048C6.77333 4.048 6.52 3.944 6.312 3.73601C6.104 3.528 6 3.27467 6 2.976L6 2.16C6 1.86134 6.104 1.61067 6.312 1.408C6.52 1.20534 6.77333 1.104 7.072 1.104L13.904 1.104ZM2.928 6.08C3.22667 6.08 3.48 6.18401 3.688 6.392C3.896 6.60001 4 6.85333 4 7.15201L4 7.968C4 8.256 3.896 8.504 3.688 8.71201C3.48 8.92 3.22667 9.024 2.928 9.024L2.08 9.024C1.792 9.024 1.544 8.92 1.336 8.71201C1.128 8.504 1.024 8.256 1.024 7.968L1.024 7.15201C1.024 6.85333 1.128 6.60001 1.336 6.392C1.544 6.18401 1.792 6.08 2.08 6.08L2.928 6.08ZM13.904 6.08C14.192 6.08 14.44 6.18401 14.648 6.392C14.856 6.60001 14.96 6.85333 14.96 7.15201L14.96 7.968C14.96 8.256 14.856 8.504 14.648 8.71201C14.44 8.92 14.192 9.024 13.904 9.024L7.072 9.024C6.77333 9.024 6.52 8.92 6.312 8.71201C6.104 8.504 6 8.256 6 7.968L6 7.15201C6 6.85333 6.104 6.60001 6.312 6.392C6.52 6.18401 6.77333 6.08 7.072 6.08L13.904 6.08ZM2.928 11.072C3.22667 11.072 3.48 11.176 3.688 11.384C3.896 11.592 4 11.84 4 12.128L4 12.944C4 13.2427 3.896 13.496 3.688 13.704C3.48 13.912 3.22667 14.016 2.928 14.016L2.08 14.016C1.792 14.016 1.544 13.912 1.336 13.704C1.128 13.496 1.024 13.2427 1.024 12.944L1.024 12.128C1.024 11.84 1.128 11.592 1.336 11.384C1.544 11.176 1.792 11.072 2.08 11.072L2.928 11.072ZM13.904 11.072C14.192 11.072 14.44 11.176 14.648 11.384C14.856 11.592 14.96 11.84 14.96 12.128L14.96 12.944C14.96 13.2427 14.856 13.496 14.648 13.704C14.44 13.912 14.192 14.016 13.904 14.016L7.072 14.016C6.77333 14.016 6.52 13.912 6.312 13.704C6.104 13.496 6 13.2427 6 12.944L6 12.128C6 11.84 6.104 11.592 6.312 11.384C6.52 11.176 6.77333 11.072 7.072 11.072L13.904 11.072Z" fill-rule="evenodd" fill="#FFFFFF"/>
	</g>
	<defs>
		<clipPath id="clip2_22">
			<rect width="16.000000" height="16.000000" fill="white"/>
		</clipPath>
	</defs>
</svg>
