<svg width="16.000000" height="16.000000" viewBox="0 0 16 16" fill="none" xmlns="http://www.w3.org/2000/svg" xmlns:xlink="http://www.w3.org/1999/xlink">
	<desc>
			Created with Pixso.
	</desc>
	<g clip-path="url(#clip2_30)">
		<path d="M8.19789 15.6505L3.73473 11.1874C2.55579 10.0084 1.8821 8.40842 1.8821 6.72421C1.8821 5.03999 2.55579 3.44 3.73473 2.26105C4.91368 1.08211 6.51368 0.408417 8.19789 0.408417C9.8821 0.408417 11.4821 1.08211 12.661 2.26105C15.1032 4.70316 15.1032 8.74525 12.661 11.1874L8.19789 15.6505ZM8.19789 1.25052C6.72421 1.25052 5.37684 1.84 4.32421 2.85052C3.27158 3.86105 2.72421 5.25052 2.72421 6.72421C2.72421 8.19789 3.31368 9.54526 4.32421 10.5979L8.19789 14.4716L12.0716 10.5979C14.2189 8.45052 14.2189 4.99789 12.0716 2.85052C11.0189 1.84 9.67158 1.25052 8.19789 1.25052ZM8.19789 9.25052C6.80842 9.25052 5.67158 8.11368 5.67158 6.72421C5.67158 5.33473 6.80842 4.19789 8.19789 4.19789C9.58736 4.19789 10.7242 5.33473 10.7242 6.72421C10.7242 8.11368 9.58736 9.25052 8.19789 9.25052ZM8.19789 5.03999C7.27158 5.03999 6.51368 5.7979 6.51368 6.72421C6.51368 7.65053 7.27158 8.40842 8.19789 8.40842C9.12421 8.40842 9.8821 7.65053 9.8821 6.72421C9.8821 5.7979 9.12421 5.03999 8.19789 5.03999Z" fill-rule="evenodd" fill="#FFFFFF"/>
	</g>
	<defs>
		<clipPath id="clip2_30">
			<rect width="16.000000" height="16.000000" fill="white"/>
		</clipPath>
	</defs>
</svg>
