<svg width="16.000000" height="16.000000" viewBox="0 0 16 16" fill="none" xmlns="http://www.w3.org/2000/svg" xmlns:xlink="http://www.w3.org/1999/xlink">
	<desc>
			Created with Pixso.
	</desc>
	<g clip-path="url(#clip2_5)">
		<path d="M13.46 3.8576C13.7966 3.72328 14.1182 3.75284 14.4247 3.94628C14.7311 4.13972 14.8962 4.41728 14.9197 4.77893L14.9293 8.47973C14.9301 8.84255 14.7839 9.13075 14.4906 9.34433C14.1973 9.55791 13.8781 9.60865 13.5331 9.49653L11.0035 8.49573C10.6862 8.36943 10.5843 8.14524 10.6977 7.82315C10.811 7.50106 11.0309 7.39015 11.3573 7.4904L13.8627 8.48187L13.8552 4.84853L11.3976 5.8288C11.0797 5.95627 10.8511 5.86354 10.7118 5.55059C10.5726 5.23765 10.6567 5.00576 10.9643 4.85493L13.46 3.8576Z" fill-rule="evenodd" fill="#FFFFFF"/>
		<path d="M10.6667 1.86667L2.13333 1.86667C1.83878 1.86667 1.58737 1.97081 1.37909 2.17909C1.17081 2.38737 1.06667 2.63878 1.06667 2.93334L1.06667 10.4C1.06667 10.6946 1.17081 10.946 1.37909 11.1542C1.58737 11.3625 1.83878 11.4667 2.13333 11.4667L10.6667 11.4667C10.9612 11.4667 11.2126 11.3625 11.4209 11.1542C11.6292 10.946 11.7333 10.6946 11.7333 10.4L11.7333 2.93334C11.7333 2.63878 11.6292 2.38737 11.4209 2.17909C11.2126 1.97081 10.9612 1.86667 10.6667 1.86667ZM2.13333 2.93334L10.6667 2.93334L10.6667 10.4L2.13333 10.4L2.13333 2.93334Z" fill-rule="evenodd" fill="#FFFFFF"/>
		<path d="M3.7896 10.9616C3.94273 10.6565 4.17484 10.5743 4.48591 10.7148C4.79698 10.8554 4.88861 11.084 4.7608 11.4005L3.4104 14.1051C3.25727 14.4102 3.02516 14.4924 2.71409 14.3518C2.40302 14.2112 2.31139 13.9827 2.4392 13.6661L3.7896 10.9616ZM8.29493 10.7229C8.58898 10.5759 8.8208 10.6432 8.9904 10.9248L10.3437 13.6283C10.4986 13.9347 10.4255 14.1707 10.1247 14.3361C9.82378 14.5015 9.58543 14.4368 9.4096 14.1419L8.05627 11.4384C7.89735 11.1204 7.9769 10.8819 8.29493 10.7229Z" fill-rule="evenodd" fill="#FFFFFF"/>
		<path d="M8 8.26667L8 8.8C8 9.15556 7.82222 9.33333 7.46667 9.33333L3.73333 9.33333C3.37778 9.33333 3.2 9.15556 3.2 8.8L3.2 8.26667L8 8.26667Z" fill-rule="evenodd" fill="#FFFFFF"/>
	</g>
	<defs>
		<clipPath id="clip2_5">
			<rect width="16.000000" height="16.000000" fill="white"/>
		</clipPath>
	</defs>
</svg>
