<svg width="16.000000" height="16.000000" viewBox="0 0 16 16" fill="none" xmlns="http://www.w3.org/2000/svg" xmlns:xlink="http://www.w3.org/1999/xlink">
	<desc>
			Created with Pixso.
	</desc>
	<g clip-path="url(#clip2_12)">
		<path d="M14.5625 4.26875L1.37968 4.26875L1.37968 1.92188C1.37968 1.85313 1.43594 1.79688 1.50468 1.79688L14.4375 1.79688C14.5062 1.79688 14.5625 1.85313 14.5625 1.92188L14.5625 4.26875Z" fill-rule="evenodd" fill="#FFFFFF"/>
		<path d="M14.9234 4.62812L1.01875 4.62812L1.01875 2.62031C1.01875 1.96719 1.55 1.43594 2.20312 1.43594L13.7391 1.43594C14.3922 1.43594 14.9234 1.96719 14.9234 2.62031L14.9234 4.62812ZM1.74063 3.90781L14.2031 3.90781L14.2031 2.62031C14.2031 2.36406 13.9953 2.15625 13.7391 2.15625L2.20312 2.15625C1.94688 2.15625 1.73907 2.36406 1.73907 2.62031L1.74063 3.90781Z" fill-rule="evenodd" fill="#FFFFFF"/>
		<path d="M13.7391 14.5156L2.20312 14.5156C1.55 14.5156 1.01875 13.9844 1.01875 13.3313L1.01875 3.90781L14.9234 3.90781L14.9234 13.3313C14.9234 13.9844 14.3922 14.5156 13.7391 14.5156ZM1.74063 4.62813L1.74063 13.3313C1.74063 13.5875 1.94844 13.7953 2.20469 13.7953L13.7406 13.7953C13.9969 13.7953 14.2047 13.5875 14.2047 13.3313L14.2047 4.62813L1.74063 4.62813Z" fill-rule="evenodd" fill="#FFFFFF"/>
	</g>
	<defs>
		<clipPath id="clip2_12">
			<rect width="16.000000" height="16.000000" fill="white"/>
		</clipPath>
	</defs>
</svg>
