<svg width="16.000000" height="16.000000" viewBox="0 0 16 16" fill="none" xmlns="http://www.w3.org/2000/svg" xmlns:xlink="http://www.w3.org/1999/xlink">
	<desc>
			Created with Pixso.
	</desc>
	<g clip-path="url(#clip2_18)">
		<path d="M12 14L4 14C3.30988 13.9997 2.72089 13.7554 2.23303 13.2673C1.74515 12.7792 1.50122 12.1901 1.50122 11.5C1.50122 10.8099 1.74515 10.2208 2.23303 9.73266C2.72089 9.24456 3.30988 9.00034 4 9L12 9C12.6901 9.00034 13.2791 9.24456 13.767 9.73266C14.2549 10.2208 14.4988 10.8099 14.4988 11.5C14.4988 12.1901 14.2549 12.7792 13.767 13.2673C13.2791 13.7554 12.6901 13.9997 12 14ZM4 10C3.58578 10 3.23224 10.1464 2.93933 10.4393C2.64645 10.7322 2.5 11.0858 2.5 11.5C2.5 11.9142 2.64645 12.2678 2.93933 12.5607C3.23224 12.8536 3.58578 13 4 13L12 13C12.4142 13 12.7678 12.8536 13.0607 12.5607C13.3535 12.2678 13.5 11.9142 13.5 11.5C13.5 11.0858 13.3535 10.7322 13.0607 10.4393C12.7678 10.1464 12.4142 10 12 10L4 10Z" fill-rule="evenodd" fill="#FFFFFF"/>
		<path d="M4 9.5L6 9.5C7.33334 9.5 8 10.1667 8 11.5C8 12.8333 7.33334 13.5 6 13.5L4 13.5C2.66666 13.5 2 12.8333 2 11.5C2 10.1667 2.66666 9.5 4 9.5Z" fill-rule="evenodd" fill="#FFFFFF"/>
		<path d="M6 14L4 14C3.30988 13.9997 2.72089 13.7554 2.23303 13.2673C1.74515 12.7792 1.50122 12.1901 1.50122 11.5C1.50122 10.8099 1.74515 10.2208 2.23303 9.73266C2.72089 9.24456 3.30988 9.00034 4 9L6 9C6.69012 9.00034 7.27911 9.24456 7.76697 9.73266C8.25485 10.2208 8.49878 10.8099 8.49878 11.5C8.49878 12.1901 8.25485 12.7792 7.76697 13.2673C7.27911 13.7554 6.69012 13.9997 6 14ZM4 10C3.58578 10 3.23224 10.1464 2.93933 10.4393C2.64645 10.7322 2.5 11.0858 2.5 11.5C2.5 11.9142 2.64645 12.2678 2.93933 12.5607C3.23224 12.8536 3.58578 13 4 13L6 13C6.41422 13 6.76776 12.8536 7.06067 12.5607C7.35355 12.2678 7.5 11.9142 7.5 11.5C7.5 11.0858 7.35355 10.7322 7.06067 10.4393C6.76776 10.1464 6.41422 10 6 10L4 10ZM6 5C5.58578 5 5.23224 4.85355 4.93933 4.56066C4.64645 4.26777 4.5 3.91421 4.5 3.5C4.5 3.08579 4.64645 2.73223 4.93933 2.43934C5.23224 2.14645 5.58578 2 6 2C6.41422 2 6.76776 2.14645 7.06067 2.43934C7.35355 2.73223 7.5 3.08579 7.5 3.5C7.5 3.91421 7.35355 4.26777 7.06067 4.56066C6.76776 4.85355 6.41422 5 6 5ZM6 3C5.66666 3 5.5 3.16667 5.5 3.5C5.5 3.83333 5.66666 4 6 4C6.33334 4 6.5 3.83333 6.5 3.5C6.5 3.16667 6.33334 3 6 3ZM10 8C9.58578 8 9.23224 7.85355 8.93933 7.56066C8.64645 7.26777 8.5 6.91421 8.5 6.5C8.5 6.08579 8.64645 5.73223 8.93933 5.43934C9.23224 5.14645 9.58578 5 10 5C10.4142 5 10.7678 5.14645 11.0607 5.43934C11.3535 5.73223 11.5 6.08579 11.5 6.5C11.5 6.91421 11.3535 7.26777 11.0607 7.56066C10.7678 7.85355 10.4142 8 10 8ZM10 6C9.66666 6 9.5 6.16667 9.5 6.5C9.5 6.83333 9.66666 7 10 7C10.3333 7 10.5 6.83333 10.5 6.5C10.5 6.16667 10.3333 6 10 6ZM5 8.5C4.8616 8.5008 4.74326 8.45247 4.64499 8.355C4.40637 8.11833 4.40637 7.88167 4.64499 7.645L10.645 1.645C10.8817 1.40833 11.1183 1.40833 11.355 1.645C11.5917 1.88167 11.5917 2.11833 11.355 2.355L5.35501 8.355C5.25674 8.45247 5.1384 8.5008 5 8.5Z" fill-rule="evenodd" fill="#FFFFFF"/>
	</g>
	<defs>
		<clipPath id="clip2_18">
			<rect width="16.000000" height="16.000000" fill="white"/>
		</clipPath>
	</defs>
</svg>
