<svg width="16.000000" height="16.000000" viewBox="0 0 16 16" fill="none" xmlns="http://www.w3.org/2000/svg" xmlns:xlink="http://www.w3.org/1999/xlink">
	<desc>
			Created with Pixso.
	</desc>
	<g clip-path="url(#clip2_24)">
		<path d="M15.4286 13.1429L0.571426 13.1429C0.380951 13.1429 0.285713 13.0476 0.285713 12.8571L0.285713 3.14285C0.285713 2.95238 0.380951 2.85714 0.571426 2.85714L15.4286 2.85714C15.619 2.85714 15.7143 2.95238 15.7143 3.14285L15.7143 12.8571C15.7143 13.0476 15.619 13.1429 15.4286 13.1429ZM0.85714 12.5714L15.1429 12.5714L15.1429 3.42857L0.85714 3.42857L0.85714 12.5714ZM10.2857 12C9.71429 12 9.42857 11.7143 9.42857 11.1429C9.42857 10.5714 9.71429 10.2857 10.2857 10.2857C10.8571 10.2857 11.1429 10.5714 11.1429 11.1429C11.1429 11.7143 10.8571 12 10.2857 12ZM10.2857 10.8571C10.0952 10.8571 10 10.9524 10 11.1429C10 11.3333 10.0952 11.4286 10.2857 11.4286C10.4762 11.4286 10.5714 11.3333 10.5714 11.1429C10.5714 10.9524 10.4762 10.8571 10.2857 10.8571ZM5.71429 12C5.14285 12 4.85714 11.7143 4.85714 11.1429C4.85714 10.5714 5.14285 10.2857 5.71429 10.2857C6.28571 10.2857 6.57143 10.5714 6.57143 11.1429C6.57143 11.7143 6.28571 12 5.71429 12ZM5.71429 10.8571C5.52381 10.8571 5.42857 10.9524 5.42857 11.1429C5.42857 11.3333 5.52381 11.4286 5.71429 11.4286C5.90476 11.4286 6 11.3333 6 11.1429C6 10.9524 5.90476 10.8571 5.71429 10.8571ZM7.14285 11.1429C7.1423 11.7148 7.42801 12.0008 8 12.0008C8.57198 12.0008 8.8577 11.7148 8.85714 11.1429C8.85714 10.5714 8.57143 10.2857 8 10.2857C7.42857 10.2857 7.14285 10.5714 7.14285 11.1429Z" fill-rule="evenodd" fill="#FFFFFF"/>
	</g>
	<defs>
		<clipPath id="clip2_24">
			<rect width="16.000000" height="16.000000" fill="white"/>
		</clipPath>
	</defs>
</svg>
