<svg width="16.000000" height="16.000004" viewBox="0 0 16 16" fill="none" xmlns="http://www.w3.org/2000/svg" xmlns:xlink="http://www.w3.org/1999/xlink">
	<desc>
			Created with Pixso.
	</desc>
	<g clip-path="url(#clip2_26)">
		<path d="M8 14.969C4.1575 14.969 1.03099 11.843 1.03099 8C1.03099 4.15751 4.15749 1.03099 8 1.03099C11.843 1.03099 14.969 4.15699 14.969 8C14.969 11.843 11.843 14.969 8 14.969ZM8 2.03099C4.70851 2.03099 2.03099 4.70848 2.03099 8C2.03099 11.291 4.70848 13.969 8 13.969C11.291 13.969 13.969 11.2915 13.969 8C13.969 4.70848 11.291 2.03099 8 2.03099ZM7.25 4.75001C7.25 5.16423 7.58578 5.50001 8 5.50001C8.41422 5.50001 8.75 5.16423 8.75 4.75001C8.75 4.33579 8.41422 4 8 4C7.58578 4 7.25 4.33579 7.25 4.75001ZM8 12C7.72398 12 7.49998 11.7765 7.49998 11.5L7.49998 7C7.49998 6.72399 7.72398 6.49999 8 6.49999C8.27602 6.49999 8.50002 6.72399 8.50002 7L8.50002 11.5C8.50002 11.7765 8.27602 12 8 12Z" fill-rule="evenodd" fill="#FFFFFF"/>
	</g>
	<defs>
		<clipPath id="clip2_26">
			<rect width="16.000000" height="16.000000" fill="white"/>
		</clipPath>
	</defs>
</svg>
