<svg xmlns="http://www.w3.org/2000/svg" xmlns:xlink="http://www.w3.org/1999/xlink" fill="none" version="1.1" width="50" height="50" viewBox="0 0 50 50"><defs><clipPath id="master_svg0_1_01"><rect x="0" y="0" width="50" height="50" rx="0"/></clipPath></defs><g clip-path="url(#master_svg0_1_01)"><g><path d="M4.75,40.75L4.75,9.25Q4.75,7.3860399999999995,6.06802,6.06802Q7.3860399999999995,4.75,9.25,4.75L40.75,4.75Q42.614,4.75,43.932,6.06802Q45.25,7.3860399999999995,45.25,9.25L45.25,40.75Q45.25,42.614,43.932,43.932Q42.614,45.25,40.75,45.25L9.25,45.25Q7.3860399999999995,45.25,6.06802,43.932Q4.75,42.614,4.75,40.75ZM7.75,40.75Q7.75,41.3713,8.18934,41.8107Q8.62868,42.25,9.25,42.25L40.75,42.25Q41.3713,42.25,41.8107,41.8107Q42.25,41.3713,42.25,40.75L42.25,9.25Q42.25,8.62868,41.8107,8.18934Q41.3713,7.75,40.75,7.75L9.25,7.75Q8.62868,7.75,8.18934,8.18934Q7.75,8.62868,7.75,9.25L7.75,40.75Z" fill="#FFFFFF" fill-opacity="1"/></g><g><path d="M31.833366030883788,19.791671752929688L31.833366030883788,16.666671752929688L33.33336603088379,16.666671752929688L33.33336603088379,18.166671752929688L16.66666603088379,18.166671752929688L16.66666603088379,16.666671752929688L18.16666603088379,16.666671752929688L18.16666603088379,19.791671752929688Q18.16666603088379,19.865361752929687,18.15944603088379,19.93870175292969Q18.15221603088379,20.012031752929687,18.13784603088379,20.084301752929687Q18.12346603088379,20.15658175292969,18.10207603088379,20.227101752929688Q18.08068603088379,20.297611752929686,18.052486030883788,20.36569175292969Q18.02428603088379,20.433781752929686,17.98954603088379,20.49876175292969Q17.954806030883788,20.563751752929686,17.91386603088379,20.625021752929687Q17.87292603088379,20.686301752929687,17.82618603088379,20.743261752929687Q17.77943603088379,20.800221752929687,17.727326030883788,20.852331752929686Q17.67521603088379,20.90444175292969,17.61825603088379,20.951191752929688Q17.56129303088379,20.997931752929688,17.50002103088379,21.038871752929687Q17.43875003088379,21.079811752929686,17.373761030883788,21.114551752929685Q17.308772030883787,21.149291752929688,17.240691030883788,21.177491752929686Q17.17261003088379,21.205691752929688,17.10209303088379,21.22708175292969Q17.031576030883787,21.24847175292969,16.95930103088379,21.262851752929688Q16.88702703088379,21.277221752929687,16.81369203088379,21.284451752929687Q16.740356330883788,21.291671752929688,16.66666603088379,21.291671752929688Q16.59297573088379,21.291671752929688,16.51964003088379,21.284451752929687Q16.44630503088379,21.277221752929687,16.37403103088379,21.262851752929688Q16.30175603088379,21.24847175292969,16.23123903088379,21.22708175292969Q16.16072203088379,21.205691752929688,16.09264103088379,21.177491752929686Q16.02456003088379,21.149291752929688,15.959571030883788,21.114551752929685Q15.89458203088379,21.079811752929686,15.83331103088379,21.038871752929687Q15.77203903088379,20.997931752929688,15.71507603088379,20.951191752929688Q15.65811603088379,20.90444175292969,15.606006030883789,20.852331752929686Q15.55389603088379,20.800221752929687,15.507146030883789,20.743261752929687Q15.460406030883789,20.686301752929687,15.41946603088379,20.625021752929687Q15.378526030883789,20.563751752929686,15.34378603088379,20.49876175292969Q15.309046030883788,20.433781752929686,15.280846030883788,20.36569175292969Q15.252646030883788,20.297611752929686,15.231256030883788,20.227101752929688Q15.20986603088379,20.15658175292969,15.195486030883789,20.084301752929687Q15.18111603088379,20.012031752929687,15.17388603088379,19.93870175292969Q15.166666030883789,19.865361752929687,15.166666030883789,19.791671752929688L15.166666030883789,16.666671752929688Q15.166666030883789,16.59298145292969,15.17388603088379,16.519645752929687Q15.18111603088379,16.446310752929687,15.195486030883789,16.374036752929687Q15.20986603088379,16.30176175292969,15.231256030883788,16.231244752929687Q15.252646030883788,16.160727752929688,15.280846030883788,16.09264675292969Q15.309046030883788,16.02456575292969,15.34378603088379,15.959576752929687Q15.378526030883789,15.894587752929688,15.41946603088379,15.833316752929688Q15.460406030883789,15.772044752929688,15.507146030883789,15.715081752929688Q15.55389603088379,15.658121752929688,15.606006030883789,15.606011752929687Q15.65811603088379,15.553901752929688,15.71507603088379,15.507151752929687Q15.77203903088379,15.460411752929687,15.83331103088379,15.419471752929688Q15.89458203088379,15.378531752929687,15.959571030883788,15.343791752929688Q16.02456003088379,15.309051752929687,16.09264103088379,15.280851752929687Q16.16072203088379,15.252651752929687,16.23123903088379,15.231261752929687Q16.30175603088379,15.209871752929688,16.37403103088379,15.195491752929687Q16.44630503088379,15.181121752929688,16.51964003088379,15.173891752929688Q16.59297573088379,15.166671752929688,16.66666603088379,15.166671752929688L33.33336603088379,15.166671752929688Q33.40706603088379,15.166671752929688,33.480366030883786,15.173891752929688Q33.55366603088379,15.181121752929688,33.62596603088379,15.195491752929687Q33.69826603088379,15.209871752929688,33.76876603088379,15.231261752929687Q33.83926603088379,15.252651752929687,33.90736603088379,15.280851752929687Q33.975466030883794,15.309051752929687,34.04046603088379,15.343791752929688Q34.105366030883786,15.378531752929687,34.16666603088379,15.419471752929688Q34.22796603088379,15.460411752929687,34.284966030883794,15.507151752929687Q34.34186603088379,15.553901752929688,34.39396603088379,15.606011752929687Q34.446066030883784,15.658121752929688,34.49286603088379,15.715081752929688Q34.53956603088379,15.772044752929688,34.58056603088379,15.833316752929688Q34.62146603088379,15.894587752929688,34.65616603088379,15.959576752929687Q34.690966030883786,16.02456575292969,34.719166030883784,16.09264675292969Q34.74736603088379,16.160727752929688,34.76876603088379,16.231244752929687Q34.79016603088379,16.30176175292969,34.80446603088379,16.374036752929687Q34.81886603088379,16.446310752929687,34.826066030883794,16.519645752929687Q34.83336603088379,16.59298145292969,34.83336603088379,16.666671752929688L34.83336603088379,19.791671752929688Q34.83336603088379,19.865361752929687,34.826066030883794,19.93870175292969Q34.81886603088379,20.012031752929687,34.80446603088379,20.084301752929687Q34.79016603088379,20.15658175292969,34.76876603088379,20.227101752929688Q34.74736603088379,20.297611752929686,34.719166030883784,20.36569175292969Q34.690966030883786,20.433781752929686,34.65616603088379,20.49876175292969Q34.62146603088379,20.563751752929686,34.58056603088379,20.625021752929687Q34.53956603088379,20.686301752929687,34.49286603088379,20.743261752929687Q34.446066030883784,20.800221752929687,34.39396603088379,20.852331752929686Q34.34186603088379,20.90444175292969,34.284966030883794,20.951191752929688Q34.22796603088379,20.997931752929688,34.16666603088379,21.038871752929687Q34.105366030883786,21.079811752929686,34.04046603088379,21.114551752929685Q33.975466030883794,21.149291752929688,33.90736603088379,21.177491752929686Q33.83926603088379,21.205691752929688,33.76876603088379,21.22708175292969Q33.69826603088379,21.24847175292969,33.62596603088379,21.262851752929688Q33.55366603088379,21.277221752929687,33.480366030883786,21.284451752929687Q33.40706603088379,21.291671752929688,33.33336603088379,21.291671752929688Q33.25966603088379,21.291671752929688,33.186266030883786,21.284451752929687Q33.11296603088379,21.277221752929687,33.040666030883784,21.262851752929688Q32.96846603088379,21.24847175292969,32.89786603088379,21.22708175292969Q32.82736603088379,21.205691752929688,32.75926603088379,21.177491752929686Q32.69126603088379,21.149291752929688,32.62626603088379,21.114551752929685Q32.561266030883786,21.079811752929686,32.49996603088379,21.038871752929687Q32.43866603088379,20.997931752929688,32.38176603088379,20.951191752929688Q32.32476603088379,20.90444175292969,32.27266603088379,20.852331752929686Q32.22056603088379,20.800221752929687,32.17376603088379,20.743261752929687Q32.12706603088379,20.686301752929687,32.08616603088379,20.625021752929687Q32.04516603088379,20.563751752929686,32.01046603088379,20.49876175292969Q31.975666030883787,20.433781752929686,31.94746603088379,20.36569175292969Q31.91926603088379,20.297611752929686,31.897966030883786,20.227101752929688Q31.876566030883787,20.15658175292969,31.862166030883788,20.084301752929687Q31.84776603088379,20.012031752929687,31.84056603088379,19.93870175292969Q31.833366030883788,19.865361752929687,31.833366030883788,19.791671752929688ZM34.83336603088379,19.791671752929688Q34.83336603088379,19.865361752929687,34.826066030883794,19.93870175292969Q34.81886603088379,20.012031752929687,34.80446603088379,20.084301752929687Q34.79016603088379,20.15658175292969,34.76876603088379,20.227101752929688Q34.74736603088379,20.297611752929686,34.719166030883784,20.36569175292969Q34.690966030883786,20.433781752929686,34.65616603088379,20.49876175292969Q34.62146603088379,20.563751752929686,34.58056603088379,20.625021752929687Q34.53956603088379,20.686301752929687,34.49286603088379,20.743261752929687Q34.446066030883784,20.800221752929687,34.39396603088379,20.852331752929686Q34.34186603088379,20.90444175292969,34.284966030883794,20.951191752929688Q34.22796603088379,20.997931752929688,34.16666603088379,21.038871752929687Q34.105366030883786,21.079811752929686,34.04046603088379,21.114551752929685Q33.975466030883794,21.149291752929688,33.90736603088379,21.177491752929686Q33.83926603088379,21.205691752929688,33.76876603088379,21.22708175292969Q33.69826603088379,21.24847175292969,33.62596603088379,21.262851752929688Q33.55366603088379,21.277221752929687,33.480366030883786,21.284451752929687Q33.40706603088379,21.291671752929688,33.33336603088379,21.291671752929688Q33.25966603088379,21.291671752929688,33.186266030883786,21.284451752929687Q33.11296603088379,21.277221752929687,33.040666030883784,21.262851752929688Q32.96846603088379,21.24847175292969,32.89786603088379,21.22708175292969Q32.82736603088379,21.205691752929688,32.75926603088379,21.177491752929686Q32.69126603088379,21.149291752929688,32.62626603088379,21.114551752929685Q32.561266030883786,21.079811752929686,32.49996603088379,21.038871752929687Q32.43866603088379,20.997931752929688,32.38176603088379,20.951191752929688Q32.32476603088379,20.90444175292969,32.27266603088379,20.852331752929686Q32.22056603088379,20.800221752929687,32.17376603088379,20.743261752929687Q32.12706603088379,20.686301752929687,32.08616603088379,20.625021752929687Q32.04516603088379,20.563751752929686,32.01046603088379,20.49876175292969Q31.975666030883787,20.433781752929686,31.94746603088379,20.36569175292969Q31.91926603088379,20.297611752929686,31.897966030883786,20.227101752929688Q31.876566030883787,20.15658175292969,31.862166030883788,20.084301752929687Q31.84776603088379,20.012031752929687,31.84056603088379,19.93870175292969Q31.833366030883788,19.865361752929687,31.833366030883788,19.791671752929688Q31.833366030883788,19.71798175292969,31.84056603088379,19.644641752929687Q31.84776603088379,19.571311752929688,31.862166030883788,19.49903175292969Q31.876566030883787,19.426761752929686,31.897966030883786,19.356241752929687Q31.91926603088379,19.28573175292969,31.94746603088379,19.217641752929687Q31.975666030883787,19.14956175292969,32.01046603088379,19.084571752929687Q32.04516603088379,19.01959175292969,32.08616603088379,18.95831175292969Q32.12706603088379,18.897041752929688,32.17376603088379,18.840081752929688Q32.22056603088379,18.783121752929688,32.27266603088379,18.73101175292969Q32.32476603088379,18.678901752929686,32.38176603088379,18.632151752929687Q32.43866603088379,18.585411752929687,32.49996603088379,18.544471752929688Q32.561266030883786,18.50353175292969,32.62626603088379,18.468791752929686Q32.69126603088379,18.434051752929687,32.75926603088379,18.40585175292969Q32.82736603088379,18.377651752929687,32.89786603088379,18.356261752929687Q32.96846603088379,18.334871752929686,33.040666030883784,18.320491752929687Q33.11296603088379,18.306121752929688,33.186266030883786,18.298891752929688Q33.25966603088379,18.291671752929688,33.33336603088379,18.291671752929688Q33.40706603088379,18.291671752929688,33.480366030883786,18.298891752929688Q33.55366603088379,18.306121752929688,33.62596603088379,18.320491752929687Q33.69826603088379,18.334871752929686,33.76876603088379,18.356261752929687Q33.83926603088379,18.377651752929687,33.90736603088379,18.40585175292969Q33.975466030883794,18.434051752929687,34.04046603088379,18.468791752929686Q34.105366030883786,18.50353175292969,34.16666603088379,18.544471752929688Q34.22796603088379,18.585411752929687,34.284966030883794,18.632151752929687Q34.34186603088379,18.678901752929686,34.39396603088379,18.73101175292969Q34.446066030883784,18.783121752929688,34.49286603088379,18.840081752929688Q34.53956603088379,18.897041752929688,34.58056603088379,18.95831175292969Q34.62146603088379,19.01959175292969,34.65616603088379,19.084571752929687Q34.690966030883786,19.14956175292969,34.719166030883784,19.217641752929687Q34.74736603088379,19.28573175292969,34.76876603088379,19.356241752929687Q34.79016603088379,19.426761752929686,34.80446603088379,19.49903175292969Q34.81886603088379,19.571311752929688,34.826066030883794,19.644641752929687Q34.83336603088379,19.71798175292969,34.83336603088379,19.791671752929688ZM18.16666603088379,19.791671752929688Q18.16666603088379,19.865361752929687,18.15944603088379,19.93870175292969Q18.15221603088379,20.012031752929687,18.13784603088379,20.084301752929687Q18.12346603088379,20.15658175292969,18.10207603088379,20.227101752929688Q18.08068603088379,20.297611752929686,18.052486030883788,20.36569175292969Q18.02428603088379,20.433781752929686,17.98954603088379,20.49876175292969Q17.954806030883788,20.563751752929686,17.91386603088379,20.625021752929687Q17.87292603088379,20.686301752929687,17.82618603088379,20.743261752929687Q17.77943603088379,20.800221752929687,17.727326030883788,20.852331752929686Q17.67521603088379,20.90444175292969,17.61825603088379,20.951191752929688Q17.56129303088379,20.997931752929688,17.50002103088379,21.038871752929687Q17.43875003088379,21.079811752929686,17.373761030883788,21.114551752929685Q17.308772030883787,21.149291752929688,17.240691030883788,21.177491752929686Q17.17261003088379,21.205691752929688,17.10209303088379,21.22708175292969Q17.031576030883787,21.24847175292969,16.95930103088379,21.262851752929688Q16.88702703088379,21.277221752929687,16.81369203088379,21.284451752929687Q16.740356330883788,21.291671752929688,16.66666603088379,21.291671752929688Q16.59297573088379,21.291671752929688,16.51964003088379,21.284451752929687Q16.44630503088379,21.277221752929687,16.37403103088379,21.262851752929688Q16.30175603088379,21.24847175292969,16.23123903088379,21.22708175292969Q16.16072203088379,21.205691752929688,16.09264103088379,21.177491752929686Q16.02456003088379,21.149291752929688,15.959571030883788,21.114551752929685Q15.89458203088379,21.079811752929686,15.83331103088379,21.038871752929687Q15.77203903088379,20.997931752929688,15.71507603088379,20.951191752929688Q15.65811603088379,20.90444175292969,15.606006030883789,20.852331752929686Q15.55389603088379,20.800221752929687,15.507146030883789,20.743261752929687Q15.460406030883789,20.686301752929687,15.41946603088379,20.625021752929687Q15.378526030883789,20.563751752929686,15.34378603088379,20.49876175292969Q15.309046030883788,20.433781752929686,15.280846030883788,20.36569175292969Q15.252646030883788,20.297611752929686,15.231256030883788,20.227101752929688Q15.20986603088379,20.15658175292969,15.195486030883789,20.084301752929687Q15.18111603088379,20.012031752929687,15.17388603088379,19.93870175292969Q15.166666030883789,19.865361752929687,15.166666030883789,19.791671752929688Q15.166666030883789,19.71798175292969,15.17388603088379,19.644641752929687Q15.18111603088379,19.571311752929688,15.195486030883789,19.49903175292969Q15.20986603088379,19.426761752929686,15.231256030883788,19.356241752929687Q15.252646030883788,19.28573175292969,15.280846030883788,19.217641752929687Q15.309046030883788,19.14956175292969,15.34378603088379,19.084571752929687Q15.378526030883789,19.01959175292969,15.41946603088379,18.95831175292969Q15.460406030883789,18.897041752929688,15.507146030883789,18.840081752929688Q15.55389603088379,18.783121752929688,15.606006030883789,18.73101175292969Q15.65811603088379,18.678901752929686,15.71507603088379,18.632151752929687Q15.77203903088379,18.585411752929687,15.83331103088379,18.544471752929688Q15.89458203088379,18.50353175292969,15.959571030883788,18.468791752929686Q16.02456003088379,18.434051752929687,16.09264103088379,18.40585175292969Q16.16072203088379,18.377651752929687,16.23123903088379,18.356261752929687Q16.30175603088379,18.334871752929686,16.37403103088379,18.320491752929687Q16.44630503088379,18.306121752929688,16.51964003088379,18.298891752929688Q16.59297573088379,18.291671752929688,16.66666603088379,18.291671752929688Q16.740356330883788,18.291671752929688,16.81369203088379,18.298891752929688Q16.88702703088379,18.306121752929688,16.95930103088379,18.320491752929687Q17.031576030883787,18.334871752929686,17.10209303088379,18.356261752929687Q17.17261003088379,18.377651752929687,17.240691030883788,18.40585175292969Q17.308772030883787,18.434051752929687,17.373761030883788,18.468791752929686Q17.43875003088379,18.50353175292969,17.50002103088379,18.544471752929688Q17.56129303088379,18.585411752929687,17.61825603088379,18.632151752929687Q17.67521603088379,18.678901752929686,17.727326030883788,18.73101175292969Q17.77943603088379,18.783121752929688,17.82618603088379,18.840081752929688Q17.87292603088379,18.897041752929688,17.91386603088379,18.95831175292969Q17.954806030883788,19.01959175292969,17.98954603088379,19.084571752929687Q18.02428603088379,19.14956175292969,18.052486030883788,19.217641752929687Q18.08068603088379,19.28573175292969,18.10207603088379,19.356241752929687Q18.12346603088379,19.426761752929686,18.13784603088379,19.49903175292969Q18.15221603088379,19.571311752929688,18.15944603088379,19.644641752929687Q18.16666603088379,19.71798175292969,18.16666603088379,19.791671752929688Z" fill="#FFFFFF" fill-opacity="1"/></g><g><path d="M27.08333603088379,36.91667175292969L22.91666603088379,36.91667175292969Q22.84297573088379,36.91667175292969,22.76964003088379,36.90945175292969Q22.69630503088379,36.90222175292969,22.62403103088379,36.887851752929684Q22.55175603088379,36.87347175292969,22.48123903088379,36.852081752929685Q22.41072203088379,36.83069175292969,22.34264103088379,36.80249175292969Q22.27456003088379,36.774291752929685,22.20957103088379,36.739551752929685Q22.14458203088379,36.704811752929686,22.083311030883788,36.66387175292969Q22.02203903088379,36.62293175292969,21.96507603088379,36.57619175292969Q21.90811603088379,36.529441752929685,21.85600603088379,36.477331752929686Q21.803896030883788,36.42522175292969,21.75714603088379,36.36826175292969Q21.71040603088379,36.31129875292969,21.66946603088379,36.250026752929685Q21.62852603088379,36.18875575292969,21.593786030883788,36.12376675292969Q21.55904603088379,36.058777752929686,21.53084603088379,35.990696752929686Q21.50264603088379,35.92261575292969,21.481256030883788,35.852098752929685Q21.459866030883788,35.78158175292969,21.44548603088379,35.709306752929685Q21.43111603088379,35.637032752929684,21.42388603088379,35.563697752929684Q21.41666603088379,35.49036205292969,21.41666603088379,35.41667175292969Q21.41666603088379,35.342981452929685,21.42388603088379,35.26964575292969Q21.43111603088379,35.19631075292969,21.44548603088379,35.12403675292969Q21.459866030883788,35.051761752929686,21.481256030883788,34.98124475292969Q21.50264603088379,34.91072775292969,21.53084603088379,34.84264675292969Q21.55904603088379,34.77456575292969,21.593786030883788,34.709576752929685Q21.62852603088379,34.64458775292969,21.66946603088379,34.58331675292969Q21.71040603088379,34.52204475292969,21.75714603088379,34.465081752929684Q21.803896030883788,34.40812175292969,21.85600603088379,34.35601175292969Q21.90811603088379,34.30390175292969,21.96507603088379,34.25715175292969Q22.02203903088379,34.21041175292969,22.083311030883788,34.16947175292969Q22.14458203088379,34.12853175292969,22.20957103088379,34.09379175292969Q22.27456003088379,34.05905175292969,22.34264103088379,34.030851752929685Q22.41072203088379,34.00265175292969,22.48123903088379,33.98126175292969Q22.55175603088379,33.959871752929686,22.62403103088379,33.94549175292969Q22.69630503088379,33.931121752929684,22.76964003088379,33.923891752929684Q22.84297573088379,33.91667175292969,22.91666603088379,33.91667175292969L27.08333603088379,33.91667175292969Q27.157026030883788,33.91667175292969,27.23035603088379,33.923891752929684Q27.30369603088379,33.931121752929684,27.375966030883788,33.94549175292969Q27.448246030883787,33.959871752929686,27.51875603088379,33.98126175292969Q27.589276030883788,34.00265175292969,27.65735603088379,34.030851752929685Q27.725436030883788,34.05905175292969,27.79042603088379,34.09379175292969Q27.855416030883788,34.12853175292969,27.91668603088379,34.16947175292969Q27.97795603088379,34.21041175292969,28.03492603088379,34.25715175292969Q28.09188603088379,34.30390175292969,28.14399603088379,34.35601175292969Q28.196096030883787,34.40812175292969,28.24284603088379,34.465081752929684Q28.28959603088379,34.52204475292969,28.33053603088379,34.58331675292969Q28.37147603088379,34.64458775292969,28.40621603088379,34.709576752929685Q28.44095603088379,34.77456575292969,28.46914603088379,34.84264675292969Q28.49735603088379,34.91072775292969,28.51874603088379,34.98124475292969Q28.54013603088379,35.051761752929686,28.55450603088379,35.12403675292969Q28.56888603088379,35.19631075292969,28.57610603088379,35.26964575292969Q28.58333603088379,35.342981452929685,28.58333603088379,35.41667175292969Q28.58333603088379,35.49036205292969,28.57610603088379,35.563697752929684Q28.56888603088379,35.637032752929684,28.55450603088379,35.709306752929685Q28.54013603088379,35.78158175292969,28.51874603088379,35.852098752929685Q28.49735603088379,35.92261575292969,28.469156030883788,35.990696752929686Q28.44095603088379,36.058777752929686,28.40621603088379,36.12376675292969Q28.37147603088379,36.18875575292969,28.33053603088379,36.250026752929685Q28.28959603088379,36.31129875292969,28.24284603088379,36.36826175292969Q28.196096030883787,36.42522175292969,28.14399603088379,36.477331752929686Q28.09188603088379,36.529441752929685,28.03492603088379,36.57619175292969Q27.97795603088379,36.62293175292969,27.91668603088379,36.66387175292969Q27.855416030883788,36.704811752929686,27.79042603088379,36.739551752929685Q27.725436030883788,36.774291752929685,27.65735603088379,36.80249175292969Q27.589276030883788,36.83069175292969,27.51875603088379,36.852081752929685Q27.448246030883787,36.87347175292969,27.375966030883788,36.887851752929684Q27.30369603088379,36.90222175292969,27.23035603088379,36.90945175292969Q27.157026030883788,36.91667175292969,27.08333603088379,36.91667175292969ZM28.58333603088379,35.41667175292969Q28.58333603088379,35.49036205292969,28.57610603088379,35.563697752929684Q28.56888603088379,35.637032752929684,28.55450603088379,35.709306752929685Q28.54013603088379,35.78158175292969,28.51874603088379,35.852098752929685Q28.49735603088379,35.92261575292969,28.469156030883788,35.990696752929686Q28.44095603088379,36.058777752929686,28.40621603088379,36.12376675292969Q28.37147603088379,36.18875575292969,28.33053603088379,36.250026752929685Q28.28959603088379,36.31129875292969,28.24284603088379,36.36826175292969Q28.196096030883787,36.42522175292969,28.14399603088379,36.477331752929686Q28.09188603088379,36.529441752929685,28.03492603088379,36.57619175292969Q27.97795603088379,36.62293175292969,27.91668603088379,36.66387175292969Q27.855416030883788,36.704811752929686,27.79042603088379,36.739551752929685Q27.725436030883788,36.774291752929685,27.65735603088379,36.80249175292969Q27.589276030883788,36.83069175292969,27.51875603088379,36.852081752929685Q27.448246030883787,36.87347175292969,27.375966030883788,36.887851752929684Q27.30369603088379,36.90222175292969,27.23035603088379,36.90945175292969Q27.157026030883788,36.91667175292969,27.08333603088379,36.91667175292969Q27.00964603088379,36.91667175292969,26.936306030883788,36.90945175292969Q26.86297603088379,36.90222175292969,26.79069603088379,36.887851752929684Q26.71842603088379,36.87347175292969,26.64790603088379,36.852081752929685Q26.57738603088379,36.83069175292969,26.50930603088379,36.80249175292969Q26.44122603088379,36.774291752929685,26.37623603088379,36.739551752929685Q26.31124603088379,36.704811752929686,26.24997603088379,36.66387175292969Q26.18870603088379,36.62293175292969,26.13174603088379,36.57619175292969Q26.07477603088379,36.529441752929685,26.02267603088379,36.477331752929686Q25.970566030883788,36.42522175292969,25.92381603088379,36.36826175292969Q25.87706603088379,36.31129875292969,25.83612603088379,36.250026752929685Q25.79518603088379,36.18875575292969,25.760446030883788,36.12376675292969Q25.725716030883788,36.058777752929686,25.69751603088379,35.990696752929686Q25.669316030883788,35.92261575292969,25.647926030883788,35.852098752929685Q25.626526030883788,35.78158175292969,25.61215603088379,35.709306752929685Q25.59777603088379,35.637032752929684,25.59055603088379,35.563697752929684Q25.58333603088379,35.49036205292969,25.58333603088379,35.41667175292969Q25.58333603088379,35.342981452929685,25.59055603088379,35.26964575292969Q25.59777603088379,35.19631075292969,25.61215603088379,35.12403675292969Q25.626526030883788,35.051761752929686,25.647926030883788,34.98124475292969Q25.669316030883788,34.91072775292969,25.69751603088379,34.84264675292969Q25.725716030883788,34.77456575292969,25.760446030883788,34.709576752929685Q25.79518603088379,34.64458775292969,25.83612603088379,34.58331675292969Q25.87706603088379,34.52204475292969,25.92381603088379,34.465081752929684Q25.970566030883788,34.40812175292969,26.02267603088379,34.35601175292969Q26.07477603088379,34.30390175292969,26.13174603088379,34.25715175292969Q26.18870603088379,34.21041175292969,26.24997603088379,34.16947175292969Q26.31124603088379,34.12853175292969,26.37623603088379,34.09379175292969Q26.44122603088379,34.05905175292969,26.50930603088379,34.030851752929685Q26.57738603088379,34.00265175292969,26.64790603088379,33.98126175292969Q26.71842603088379,33.959871752929686,26.79069603088379,33.94549175292969Q26.86297603088379,33.931121752929684,26.936306030883788,33.923891752929684Q27.00964603088379,33.91667175292969,27.08333603088379,33.91667175292969Q27.157026030883788,33.91667175292969,27.23035603088379,33.923891752929684Q27.30369603088379,33.931121752929684,27.375966030883788,33.94549175292969Q27.448246030883787,33.959871752929686,27.51875603088379,33.98126175292969Q27.589276030883788,34.00265175292969,27.65735603088379,34.030851752929685Q27.725436030883788,34.05905175292969,27.79042603088379,34.09379175292969Q27.855416030883788,34.12853175292969,27.91668603088379,34.16947175292969Q27.97795603088379,34.21041175292969,28.03492603088379,34.25715175292969Q28.09188603088379,34.30390175292969,28.14399603088379,34.35601175292969Q28.196096030883787,34.40812175292969,28.24284603088379,34.465081752929684Q28.28959603088379,34.52204475292969,28.33053603088379,34.58331675292969Q28.37147603088379,34.64458775292969,28.40621603088379,34.709576752929685Q28.44095603088379,34.77456575292969,28.46914603088379,34.84264675292969Q28.49735603088379,34.91072775292969,28.51874603088379,34.98124475292969Q28.54013603088379,35.051761752929686,28.55450603088379,35.12403675292969Q28.56888603088379,35.19631075292969,28.57610603088379,35.26964575292969Q28.58333603088379,35.342981452929685,28.58333603088379,35.41667175292969ZM24.41666603088379,35.41667175292969Q24.41666603088379,35.49036205292969,24.40944603088379,35.563697752929684Q24.40221603088379,35.637032752929684,24.38784603088379,35.709306752929685Q24.37346603088379,35.78158175292969,24.35207603088379,35.852098752929685Q24.33068603088379,35.92261575292969,24.302486030883788,35.990696752929686Q24.27428603088379,36.058777752929686,24.23954603088379,36.12376675292969Q24.204806030883788,36.18875575292969,24.16386603088379,36.250026752929685Q24.12292603088379,36.31129875292969,24.07618603088379,36.36826175292969Q24.02943603088379,36.42522175292969,23.977326030883788,36.477331752929686Q23.92521603088379,36.529441752929685,23.86825603088379,36.57619175292969Q23.81129303088379,36.62293175292969,23.75002103088379,36.66387175292969Q23.68875003088379,36.704811752929686,23.623761030883788,36.739551752929685Q23.558772030883787,36.774291752929685,23.490691030883788,36.80249175292969Q23.42261003088379,36.83069175292969,23.35209303088379,36.852081752929685Q23.281576030883787,36.87347175292969,23.20930103088379,36.887851752929684Q23.13702703088379,36.90222175292969,23.06369203088379,36.90945175292969Q22.990356330883788,36.91667175292969,22.91666603088379,36.91667175292969Q22.84297573088379,36.91667175292969,22.76964003088379,36.90945175292969Q22.69630503088379,36.90222175292969,22.62403103088379,36.887851752929684Q22.55175603088379,36.87347175292969,22.48123903088379,36.852081752929685Q22.41072203088379,36.83069175292969,22.34264103088379,36.80249175292969Q22.27456003088379,36.774291752929685,22.20957103088379,36.739551752929685Q22.14458203088379,36.704811752929686,22.083311030883788,36.66387175292969Q22.02203903088379,36.62293175292969,21.96507603088379,36.57619175292969Q21.90811603088379,36.529441752929685,21.85600603088379,36.477331752929686Q21.803896030883788,36.42522175292969,21.75714603088379,36.36826175292969Q21.71040603088379,36.31129875292969,21.66946603088379,36.250026752929685Q21.62852603088379,36.18875575292969,21.593786030883788,36.12376675292969Q21.55904603088379,36.058777752929686,21.53084603088379,35.990696752929686Q21.50264603088379,35.92261575292969,21.481256030883788,35.852098752929685Q21.459866030883788,35.78158175292969,21.44548603088379,35.709306752929685Q21.43111603088379,35.637032752929684,21.42388603088379,35.563697752929684Q21.41666603088379,35.49036205292969,21.41666603088379,35.41667175292969Q21.41666603088379,35.342981452929685,21.42388603088379,35.26964575292969Q21.43111603088379,35.19631075292969,21.44548603088379,35.12403675292969Q21.459866030883788,35.051761752929686,21.481256030883788,34.98124475292969Q21.50264603088379,34.91072775292969,21.53084603088379,34.84264675292969Q21.55904603088379,34.77456575292969,21.593786030883788,34.709576752929685Q21.62852603088379,34.64458775292969,21.66946603088379,34.58331675292969Q21.71040603088379,34.52204475292969,21.75714603088379,34.465081752929684Q21.803896030883788,34.40812175292969,21.85600603088379,34.35601175292969Q21.90811603088379,34.30390175292969,21.96507603088379,34.25715175292969Q22.02203903088379,34.21041175292969,22.083311030883788,34.16947175292969Q22.14458203088379,34.12853175292969,22.20957103088379,34.09379175292969Q22.27456003088379,34.05905175292969,22.34264103088379,34.030851752929685Q22.41072203088379,34.00265175292969,22.48123903088379,33.98126175292969Q22.55175603088379,33.959871752929686,22.62403103088379,33.94549175292969Q22.69630503088379,33.931121752929684,22.76964003088379,33.923891752929684Q22.84297573088379,33.91667175292969,22.91666603088379,33.91667175292969Q22.990356330883788,33.91667175292969,23.06369203088379,33.923891752929684Q23.13702703088379,33.931121752929684,23.20930103088379,33.94549175292969Q23.281576030883787,33.959871752929686,23.35209303088379,33.98126175292969Q23.42261003088379,34.00265175292969,23.490691030883788,34.030851752929685Q23.558772030883787,34.05905175292969,23.623761030883788,34.09379175292969Q23.68875003088379,34.12853175292969,23.75002103088379,34.16947175292969Q23.81129303088379,34.21041175292969,23.86825603088379,34.25715175292969Q23.92521603088379,34.30390175292969,23.977326030883788,34.35601175292969Q24.02943603088379,34.40812175292969,24.07618603088379,34.465081752929684Q24.12292603088379,34.52204475292969,24.16386603088379,34.58331675292969Q24.204806030883788,34.64458775292969,24.23954603088379,34.709576752929685Q24.27428603088379,34.77456575292969,24.302486030883788,34.84264675292969Q24.33068603088379,34.91072775292969,24.35207603088379,34.98124475292969Q24.37346603088379,35.051761752929686,24.38784603088379,35.12403675292969Q24.40221603088379,35.19631075292969,24.40944603088379,35.26964575292969Q24.41666603088379,35.342981452929685,24.41666603088379,35.41667175292969Z" fill="#FFFFFF" fill-opacity="1"/></g><g><path d="M23.5,35.4167L23.5,18.75Q23.5,18.6763097,23.50722,18.602974Q23.51445,18.529639,23.52882,18.457365Q23.5432,18.38509,23.56459,18.314573Q23.58598,18.244056,23.61418,18.175975Q23.64238,18.107894,23.67712,18.042905Q23.71186,17.977916,23.7528,17.916645Q23.79374,17.855373,23.84048,17.79841Q23.88723,17.74145,23.93934,17.68934Q23.99145,17.63723,24.04841,17.59048Q24.105373,17.54374,24.166645,17.5028Q24.227916,17.46186,24.292905,17.42712Q24.357894,17.39238,24.425975,17.36418Q24.494056,17.33598,24.564573,17.31459Q24.63509,17.2932,24.707365,17.27882Q24.779639,17.26445,24.852974,17.25722Q24.9263097,17.25,25,17.25Q25.0736903,17.25,25.147026,17.25722Q25.220361,17.26445,25.292635,17.27882Q25.36491,17.2932,25.435427,17.31459Q25.505944,17.33598,25.574025,17.36418Q25.642106,17.39238,25.707095,17.42712Q25.772084,17.46186,25.833355,17.5028Q25.894627,17.54374,25.95159,17.59048Q26.00855,17.63723,26.06066,17.68934Q26.11277,17.74145,26.15952,17.79841Q26.20626,17.855373,26.2472,17.916645Q26.28814,17.977916,26.32288,18.042905Q26.35762,18.107894,26.38582,18.175975Q26.41402,18.244056,26.43541,18.314573Q26.4568,18.38509,26.47118,18.457365Q26.48555,18.529639,26.49278,18.602974Q26.5,18.6763097,26.5,18.75L26.5,35.4167Q26.5,35.4904,26.49278,35.5637Q26.48555,35.637,26.47118,35.7093Q26.4568,35.7816,26.43541,35.8521Q26.41402,35.9226,26.38582,35.990700000000004Q26.35762,36.058800000000005,26.32288,36.1238Q26.28814,36.1887,26.2472,36.25Q26.20626,36.3113,26.15952,36.368300000000005Q26.11277,36.425200000000004,26.06066,36.4773Q26.00855,36.529399999999995,25.95159,36.5762Q25.894627,36.6229,25.833355,36.6639Q25.772084,36.7048,25.707095,36.7395Q25.642106,36.7743,25.574025,36.802499999999995Q25.505944,36.8307,25.435427,36.8521Q25.36491,36.8735,25.292635,36.8878Q25.220361,36.9022,25.147026,36.909400000000005Q25.0736903,36.9167,25,36.9167Q24.9263097,36.9167,24.852974,36.909400000000005Q24.779639,36.9022,24.707365,36.8878Q24.63509,36.8735,24.564573,36.8521Q24.494056,36.8307,24.425975,36.802499999999995Q24.357894,36.7743,24.292905,36.7395Q24.227916,36.7048,24.166645,36.6639Q24.105373,36.6229,24.04841,36.5762Q23.99145,36.529399999999995,23.93934,36.4773Q23.88723,36.425200000000004,23.84048,36.368300000000005Q23.79374,36.3113,23.7528,36.25Q23.71186,36.1887,23.67712,36.1238Q23.64238,36.058800000000005,23.61418,35.990700000000004Q23.58598,35.9226,23.56459,35.8521Q23.5432,35.7816,23.52882,35.7093Q23.51445,35.637,23.50722,35.5637Q23.5,35.4904,23.5,35.4167ZM26.5,35.4167Q26.5,35.4904,26.49278,35.5637Q26.48555,35.637,26.47118,35.7093Q26.4568,35.7816,26.43541,35.8521Q26.41402,35.9226,26.38582,35.990700000000004Q26.35762,36.058800000000005,26.32288,36.1238Q26.28814,36.1887,26.2472,36.25Q26.20626,36.3113,26.15952,36.368300000000005Q26.11277,36.425200000000004,26.06066,36.4773Q26.00855,36.529399999999995,25.95159,36.5762Q25.894627,36.6229,25.833355,36.6639Q25.772084,36.7048,25.707095,36.7395Q25.642106,36.7743,25.574025,36.802499999999995Q25.505944,36.8307,25.435427,36.8521Q25.36491,36.8735,25.292635,36.8878Q25.220361,36.9022,25.147026,36.909400000000005Q25.0736903,36.9167,25,36.9167Q24.9263097,36.9167,24.852974,36.909400000000005Q24.779639,36.9022,24.707365,36.8878Q24.63509,36.8735,24.564573,36.8521Q24.494056,36.8307,24.425975,36.802499999999995Q24.357894,36.7743,24.292905,36.7395Q24.227916,36.7048,24.166645,36.6639Q24.105373,36.6229,24.04841,36.5762Q23.99145,36.529399999999995,23.93934,36.4773Q23.88723,36.425200000000004,23.84048,36.368300000000005Q23.79374,36.3113,23.7528,36.25Q23.71186,36.1887,23.67712,36.1238Q23.64238,36.058800000000005,23.61418,35.990700000000004Q23.58598,35.9226,23.56459,35.8521Q23.5432,35.7816,23.52882,35.7093Q23.51445,35.637,23.50722,35.5637Q23.5,35.4904,23.5,35.4167Q23.5,35.343,23.50722,35.2696Q23.51445,35.1963,23.52882,35.123999999999995Q23.5432,35.0518,23.56459,34.9812Q23.58598,34.9107,23.61418,34.842600000000004Q23.64238,34.7746,23.67712,34.7096Q23.71186,34.6446,23.7528,34.5833Q23.79374,34.522,23.84048,34.4651Q23.88723,34.4081,23.93934,34.356Q23.99145,34.3039,24.04841,34.2571Q24.105373,34.2104,24.166645,34.1695Q24.227916,34.1285,24.292905,34.0938Q24.357894,34.059,24.425975,34.0308Q24.494056,34.0026,24.564573,33.9813Q24.63509,33.9599,24.707365,33.945499999999996Q24.779639,33.9311,24.852974,33.9239Q24.9263097,33.9167,25,33.9167Q25.0736903,33.9167,25.147026,33.9239Q25.220361,33.9311,25.292635,33.945499999999996Q25.36491,33.9599,25.435427,33.9813Q25.505944,34.0026,25.574025,34.0308Q25.642106,34.059,25.707095,34.0938Q25.772084,34.1285,25.833355,34.1695Q25.894627,34.2104,25.95159,34.2571Q26.00855,34.3039,26.06066,34.356Q26.11277,34.4081,26.15952,34.4651Q26.20626,34.522,26.2472,34.5833Q26.28814,34.6446,26.32288,34.7096Q26.35762,34.7746,26.38582,34.842600000000004Q26.41402,34.9107,26.43541,34.9812Q26.4568,35.0518,26.47118,35.123999999999995Q26.48555,35.1963,26.49278,35.2696Q26.5,35.343,26.5,35.4167ZM26.5,18.75Q26.5,18.8236903,26.49278,18.897026Q26.48555,18.970361,26.47118,19.042635Q26.4568,19.11491,26.43541,19.185427Q26.41402,19.255944,26.38582,19.324025Q26.35762,19.392106,26.32288,19.457095Q26.28814,19.522084,26.2472,19.583355Q26.20626,19.644627,26.15952,19.70159Q26.11277,19.75855,26.06066,19.81066Q26.00855,19.86277,25.95159,19.90952Q25.894627,19.95626,25.833355,19.9972Q25.772084,20.03814,25.707095,20.07288Q25.642106,20.10762,25.574025,20.13582Q25.505944,20.16402,25.435427,20.18541Q25.36491,20.2068,25.292635,20.22118Q25.220361,20.23555,25.147026,20.24278Q25.0736903,20.25,25,20.25Q24.9263097,20.25,24.852974,20.24278Q24.779639,20.23555,24.707365,20.22118Q24.63509,20.2068,24.564573,20.18541Q24.494056,20.16402,24.425975,20.13582Q24.357894,20.10762,24.292905,20.07288Q24.227916,20.03814,24.166645,19.9972Q24.105373,19.95626,24.04841,19.90952Q23.99145,19.86277,23.93934,19.81066Q23.88723,19.75855,23.84048,19.70159Q23.79374,19.644627,23.7528,19.583355Q23.71186,19.522084,23.67712,19.457095Q23.64238,19.392106,23.61418,19.324025Q23.58598,19.255944,23.56459,19.185427Q23.5432,19.11491,23.52882,19.042635Q23.51445,18.970361,23.50722,18.897026Q23.5,18.8236903,23.5,18.75Q23.5,18.6763097,23.50722,18.602974Q23.51445,18.529639,23.52882,18.457365Q23.5432,18.38509,23.56459,18.314573Q23.58598,18.244056,23.61418,18.175975Q23.64238,18.107894,23.67712,18.042905Q23.71186,17.977916,23.7528,17.916645Q23.79374,17.855373,23.84048,17.79841Q23.88723,17.74145,23.93934,17.68934Q23.99145,17.63723,24.04841,17.59048Q24.105373,17.54374,24.166645,17.5028Q24.227916,17.46186,24.292905,17.42712Q24.357894,17.39238,24.425975,17.36418Q24.494056,17.33598,24.564573,17.31459Q24.63509,17.2932,24.707365,17.27882Q24.779639,17.26445,24.852974,17.25722Q24.9263097,17.25,25,17.25Q25.0736903,17.25,25.147026,17.25722Q25.220361,17.26445,25.292635,17.27882Q25.36491,17.2932,25.435427,17.31459Q25.505944,17.33598,25.574025,17.36418Q25.642106,17.39238,25.707095,17.42712Q25.772084,17.46186,25.833355,17.5028Q25.894627,17.54374,25.95159,17.59048Q26.00855,17.63723,26.06066,17.68934Q26.11277,17.74145,26.15952,17.79841Q26.20626,17.855373,26.2472,17.916645Q26.28814,17.977916,26.32288,18.042905Q26.35762,18.107894,26.38582,18.175975Q26.41402,18.244056,26.43541,18.314573Q26.4568,18.38509,26.47118,18.457365Q26.48555,18.529639,26.49278,18.602974Q26.5,18.6763097,26.5,18.75Z" fill="#FFFFFF" fill-opacity="1"/></g></g></svg>
