<svg width="48.000000" height="48.000000" viewBox="0 0 48 48" fill="none" xmlns="http://www.w3.org/2000/svg" xmlns:xlink="http://www.w3.org/1999/xlink">
	<desc>
			Created with Pixso.
	</desc>
	<g clip-path="url(#clip2_35)">
		<rect width="48.000000" height="48.000000" fill="#FFFFFF" fill-opacity="0.01"/>
		<path d="M8 12C7.16 12 6.5 11.34 6.5 10.5C6.5 9.66 7.16 9 8 9L40 9C40.84 9 41.5 9.66 41.5 10.5C41.5 11.34 40.84 12 40 12L8 12Z" fill-rule="evenodd" fill="#FFFFFF"/>
		<path d="M24 21C23.16 21 22.5 20.34 22.5 19.5C22.5 18.66 23.16 18 24 18L40 18C40.84 18 41.5 18.66 41.5 19.5C41.5 20.34 40.84 21 40 21L24 21Z" fill-rule="evenodd" fill="#FFFFFF"/>
		<path d="M24 30C23.16 30 22.5 29.34 22.5 28.5C22.5 27.66 23.16 27 24 27L40 27C40.84 27 41.5 27.66 41.5 28.5C41.5 29.34 40.84 30 40 30L24 30Z" fill-rule="evenodd" fill="#FFFFFF"/>
		<path d="M8 39C7.16 39 6.5 38.34 6.5 37.5C6.5 36.66 7.16 36 8 36L40 36C40.84 36 41.5 36.66 41.5 37.5C41.5 38.34 40.84 39 40 39L8 39Z" fill-rule="evenodd" fill="#FFFFFF"/>
		<path d="M16 24L8 29L8 19L16 24Z" stroke="#FFFFFF" stroke-width="3.000000" stroke-linejoin="round"/>
	</g>
	<defs>
		<clipPath id="clip2_35">
			<rect width="48.000000" height="48.000000" fill="white"/>
		</clipPath>
	</defs>
</svg>
